<?xml version="1.0" encoding="UTF-8"?>
<svg id="_图层_1" data-name="图层 1" xmlns="http://www.w3.org/2000/svg" viewBox="0 0 3840 1200">
  <defs>
    <style>
      .cls-1 {
        fill: #e2f3f7;
      }
    </style>
  </defs>
  <g>
    <path class="cls-1" d="M1053.88,891.35V328.43h78.98v562.91h-78.98ZM1107.3,891.35v-75.11h127.37c41.55,0,73.75-10.77,96.59-32.33,22.84-21.55,34.26-51.94,34.26-91.17v-165.7c0-39.23-11.42-69.62-34.26-91.17-22.84-21.55-55.04-32.33-96.59-32.33h-127.37v-75.11h125.05c68.14,0,120.85,17.62,158.15,52.85,37.29,35.23,55.94,84.85,55.94,148.86v159.5c0,42.59-8.39,78.92-25.16,108.98-16.78,30.07-41.17,53.04-73.17,68.91-32.01,15.87-70.72,23.81-116.14,23.81h-124.66Z"/>
    <path class="cls-1" d="M1651.71,897.15c-56.01,0-99.37-15.61-130.08-46.84-30.72-31.23-46.07-75.62-46.07-133.18v-45.3c0-59.88,14.77-106.21,44.33-138.99,29.55-32.77,71.17-49.17,124.85-49.17,50.58,0,89.75,18.58,117.5,55.75,27.74,37.17,41.62,89.3,41.62,156.41v26.33h-271v-63.49h195.9c-2.32-32.52-10.78-57.94-25.36-76.27-14.58-18.32-34.14-27.49-58.65-27.49-29.68,0-52.79,9.81-69.3,29.42-16.52,19.62-24.78,47.36-24.78,83.24v51.1c0,33.29,8.84,58.85,26.52,76.65,17.68,17.81,42.52,26.71,74.53,26.71,16,0,31.87-3.22,47.62-9.68,15.74-6.45,29.81-15.49,42.2-27.1l51.88,51.88c-19.88,19.1-42.2,33.88-66.98,44.33-24.78,10.45-49.69,15.68-74.72,15.68Z"/>
    <path class="cls-1" d="M1960.34,898.31c-44.4,0-78.66-14.26-102.79-42.78-24.14-28.52-36.2-68.72-36.2-120.6v-88.66c0-52.13,11.81-92.46,35.42-120.98,23.62-28.52,56.84-42.78,99.69-42.78,23.74,0,45.49,6.19,65.23,18.58,19.74,12.39,35.68,29.81,47.81,52.26l-8.13,82.08c0-17.04-3.1-31.61-9.29-43.75-6.2-12.13-15.17-21.35-26.91-27.68-11.75-6.32-26.01-9.48-42.78-9.48-26.07,0-46.26,8.13-60.59,24.39-14.32,16.26-21.49,39.1-21.49,68.52v87.5c0,29.17,7.16,51.68,21.49,67.56,14.33,15.87,34.52,23.81,60.59,23.81,16.78,0,31.03-3.29,42.78-9.87,11.74-6.58,20.71-16.07,26.91-28.46,6.19-12.39,9.29-27.23,9.29-44.52l5.42,84.79c-7.23,18.07-19.68,34.26-37.36,48.59-17.68,14.32-40.72,21.49-69.11,21.49ZM1967.7,1054.72c-30.2,0-57.24-5.61-81.11-16.84-23.88-11.23-42.39-27.04-55.56-47.43l53.43-48.39c10.32,14.19,22.65,25.17,36.97,32.91,14.32,7.74,29.36,11.61,45.1,11.61,30.2,0,53.55-8.32,70.07-24.97,16.51-16.65,24.78-40.2,24.78-70.65v-401.47h78.98v389.86c0,55.75-15.04,98.92-45.1,129.5-30.07,30.58-72.59,45.88-127.56,45.88Z"/>
    <path class="cls-1" d="M2181.09,407.41v-78.98h78.98v78.98h-78.98ZM2181.09,891.35v-401.86h78.98v401.86h-78.98Z"/>
    <path class="cls-1" d="M2442.88,897.15c-35.62,0-67.94-5.23-96.98-15.68s-55.04-26.13-78.01-47.04l46.84-57.69c21.93,16.52,43.55,28.91,64.85,37.17,21.29,8.26,42.39,12.39,63.3,12.39,31.23,0,54.65-4.84,70.27-14.52,15.61-9.68,23.42-24.2,23.42-43.55,0-14.97-5.23-25.55-15.68-31.75s-24.14-10.26-41.04-12.2c-16.91-1.94-35.04-3.54-54.39-4.84-16.26-1.29-32.39-3.29-48.39-6-16.01-2.71-30.58-7.61-43.75-14.71-13.16-7.1-23.68-17.62-31.55-31.55-7.88-13.94-11.81-32.65-11.81-56.14,0-42.59,13.03-74.46,39.1-95.62,26.07-21.16,64.91-31.75,116.53-31.75,31.49,0,60.78,4.26,87.88,12.78,27.1,8.52,52.52,21.55,76.27,39.1l-47.62,57.69c-20.13-12.9-39.94-22.58-59.43-29.04-19.49-6.45-38.52-9.68-57.1-9.68-26.85,0-46.98,4.59-60.39,13.74-13.42,9.16-20.13,22.91-20.13,41.23,0,12.13,4.65,20.85,13.94,26.13,9.29,5.29,21.55,8.71,36.78,10.26,15.23,1.55,31.61,2.97,49.17,4.26,16.77,1.03,33.74,2.9,50.91,5.61,17.16,2.71,32.97,7.94,47.43,15.68,14.45,7.74,26.07,19.23,34.84,34.46,8.77,15.23,13.16,36,13.16,62.33,0,43.11-14,75.37-42,96.79-28.01,21.43-70.14,32.13-126.4,32.13Z"/>
    <path class="cls-1" d="M2632.66,891.35v-401.86h78.98v401.86h-78.98ZM2876.56,891.35v-243.51c0-28.39-7.29-50.33-21.87-65.82-14.58-15.49-35.3-23.23-62.14-23.23s-45.75,6.84-59.81,20.52c-14.07,13.68-21.1,32.91-21.1,57.68l-8.13-77.43c12.39-24.26,28.58-42.97,48.59-56.14,20-13.16,42.13-19.74,66.4-19.74,43.62,0,77.36,14.26,101.24,42.78,23.87,28.52,35.81,68.85,35.81,120.98v243.9h-78.98Z"/>
    <path class="cls-1" d="M3190.23,897.15c-39.75,0-74.46-8.58-104.14-25.75-29.68-17.16-52.72-41.36-69.11-72.59-16.39-31.23-24.58-67.62-24.58-109.17v-159.5c0-41.81,8.19-78.26,24.58-109.37,16.39-31.1,39.42-55.23,69.11-72.4,29.68-17.16,64.39-25.75,104.14-25.75s74.46,8.58,104.14,25.75c29.68,17.17,52.71,41.3,69.11,72.4,16.39,31.1,24.58,67.56,24.58,109.37v159.5c0,41.56-8.2,77.95-24.58,109.17-16.39,31.23-39.43,55.43-69.11,72.59-29.68,17.17-64.4,25.75-104.14,25.75ZM3190.23,819.34c35.36,0,63.69-11.62,84.98-34.84s31.94-53.94,31.94-92.14v-164.92c0-38.45-10.65-69.23-31.94-92.33-21.29-23.1-49.62-34.65-84.98-34.65s-63.36,11.55-84.78,34.65c-21.43,23.1-32.13,53.88-32.13,92.33v164.92c0,38.2,10.71,68.91,32.13,92.14,21.42,23.23,49.68,34.84,84.78,34.84Z"/>
    <path class="cls-1" d="M3590.23,897.15c-27.36,0-53.11-2.58-77.24-7.74-24.14-5.16-46.72-12.9-67.75-23.23-21.04-10.32-40.72-23.23-59.04-38.71l49.17-60.4c21.42,18.58,45.04,32.52,70.85,41.81,25.81,9.29,53.81,13.94,84.01,13.94,40.78,0,72.4-7.61,94.85-22.84,22.45-15.23,33.68-36.52,33.68-63.88v-.39c0-21.42-5.68-37.81-17.04-49.17-11.36-11.35-26.27-19.8-44.71-25.36-18.46-5.55-38.65-10.13-60.59-13.74-21.17-3.61-42.53-7.87-64.07-12.78-21.55-4.9-41.36-12.58-59.43-23.04-18.07-10.45-32.59-25.49-43.55-45.1-10.97-19.61-16.45-45.81-16.45-78.59v-.39c0-52.39,17.42-92.98,52.26-121.76,34.84-28.78,84.01-43.17,147.5-43.17,30.2,0,59.75,4.84,88.66,14.52,28.9,9.68,57.04,24.46,84.4,44.33l-44.91,62.72c-21.43-16-42.78-27.87-64.07-35.62-21.29-7.74-42.65-11.61-64.07-11.61-38.46,0-68.33,7.68-89.62,23.04-21.29,15.36-31.94,37.11-31.94,65.23v.39c0,21.17,6.19,37.3,18.58,48.39,12.39,11.1,28.58,19.3,48.59,24.58,20,5.29,41.49,10.26,64.46,14.91,20.65,4.13,41.29,9.1,61.94,14.91,20.65,5.81,39.42,14.2,56.33,25.16,16.9,10.97,30.45,26,40.65,45.1,10.19,19.1,15.29,44.01,15.29,74.72v.77c0,51.88-18.07,92.01-54.2,120.4-36.14,28.4-86.98,42.59-152.54,42.59Z"/>
  </g>
  <path class="cls-1" d="M684.16,978.68l127.55-127.55-29.76-29.76-76.53,76.53v-174.32h-42.52v174.32l-76.53-76.53-29.76,29.76,127.55,127.55ZM429.06,213.37l-251.91,145.62,251.91,145.62,251.91-145.62-251.91-145.62ZM46.41,722.51v-338.01c0-15.59,3.72-29.76,11.16-42.52,7.44-12.76,17.89-23.03,31.36-30.82l297.62-171.13c7.09-3.54,14-6.38,20.73-8.5,6.73-2.13,14-3.19,21.79-3.19s15.24,1.06,22.32,3.19c7.09,2.13,13.82,4.96,20.2,8.5l297.62,171.13c13.46,7.79,23.92,18.07,31.36,30.82,7.44,12.76,11.16,26.93,11.16,42.52v169h-85.03v-123.3l-298.68,172.19-296.56-172.19v291.24l255.1,147.75v97.79l-297.62-171.13c-13.46-7.79-23.92-18.07-31.36-30.82s-11.16-26.93-11.16-42.52ZM684.16,1063.71c-58.82,0-108.95-20.73-150.4-62.18-41.45-41.45-62.18-91.59-62.18-150.4s20.73-108.95,62.18-150.4,91.59-62.18,150.4-62.18,108.95,20.73,150.4,62.18c41.45,41.45,62.18,91.59,62.18,150.4s-20.73,108.95-62.18,150.4c-41.45,41.45-91.59,62.18-150.4,62.18Z"/>
</svg>