<?xml version="1.0" encoding="UTF-8"?>
<svg id="_图层_1" data-name="图层 1" xmlns="http://www.w3.org/2000/svg" viewBox="0 0 3840 1200">
  <defs>
    <style>
      .cls-1 {
        font-family: Bahnschrift, Bahnschrift;
        font-size: 792.88px;
        font-variation-settings: 'wght' 400, 'wdth' 100;
      }

      .cls-1, .cls-2 {
        fill: #e2f3f7;
      }

      .cls-3 {
        letter-spacing: -.1em;
      }

      .cls-4 {
        letter-spacing: -.1em;
      }

      .cls-5 {
        letter-spacing: -.12em;
      }
    </style>
  </defs>
  <text class="cls-1" transform="translate(984.19 891.35)"><tspan class="cls-3" x="0" y="0">Degisn</tspan><tspan class="cls-5" x="1950.13" y="0">O</tspan><tspan class="cls-4" x="2367.17" y="0">S</tspan></text>
  <path class="cls-2" d="M684.16,978.68l127.55-127.55-29.76-29.76-76.53,76.53v-174.32h-42.52v174.32l-76.53-76.53-29.76,29.76,127.55,127.55ZM429.06,213.37l-251.91,145.62,251.91,145.62,251.91-145.62-251.91-145.62ZM46.41,722.51v-338.01c0-15.59,3.72-29.76,11.16-42.52,7.44-12.76,17.89-23.03,31.36-30.82l297.62-171.13c7.09-3.54,14-6.38,20.73-8.5,6.73-2.13,14-3.19,21.79-3.19s15.24,1.06,22.32,3.19c7.09,2.13,13.82,4.96,20.2,8.5l297.62,171.13c13.46,7.79,23.92,18.07,31.36,30.82,7.44,12.76,11.16,26.93,11.16,42.52v169h-85.03v-123.3l-298.68,172.19-296.56-172.19v291.24l255.1,147.75v97.79l-297.62-171.13c-13.46-7.79-23.92-18.07-31.36-30.82s-11.16-26.93-11.16-42.52ZM684.16,1063.71c-58.82,0-108.95-20.73-150.4-62.18-41.45-41.45-62.18-91.59-62.18-150.4s20.73-108.95,62.18-150.4,91.59-62.18,150.4-62.18,108.95,20.73,150.4,62.18c41.45,41.45,62.18,91.59,62.18,150.4s-20.73,108.95-62.18,150.4c-41.45,41.45-91.59,62.18-150.4,62.18Z"/>
</svg>